<svg width="14" height="14" viewBox="0 0 14 14" fill="none" xmlns="http://www.w3.org/2000/svg">
<path d="M11.6666 5.83317C11.6666 9.33317 6.99992 12.8332 6.99992 12.8332C6.99992 12.8332 2.33325 9.33317 2.33325 5.83317C2.33325 4.59549 2.82492 3.40851 3.70009 2.53334C4.57526 1.65817 5.76224 1.1665 6.99992 1.1665C8.2376 1.1665 9.42458 1.65817 10.2998 2.53334C11.1749 3.40851 11.6666 4.59549 11.6666 5.83317Z" stroke="#0F172A" stroke-width="2" stroke-linecap="round" stroke-linejoin="round"/>
<path d="M7 7.5835C7.9665 7.5835 8.75 6.79999 8.75 5.8335C8.75 4.867 7.9665 4.0835 7 4.0835C6.0335 4.0835 5.25 4.867 5.25 5.8335C5.25 6.79999 6.0335 7.5835 7 7.5835Z" stroke="#0F172A" stroke-width="2" stroke-linecap="round" stroke-linejoin="round"/>
</svg>
